<svg width="395" height="81" viewBox="0 0 395 81" fill="none" xmlns="http://www.w3.org/2000/svg">
<path d="M7.47392 59.7134C6.96192 59.7134 6.51392 59.5374 6.12992 59.1854C5.77792 58.8014 5.60192 58.3534 5.60192 57.8414V24.0974C5.60192 23.5534 5.77792 23.1054 6.12992 22.7534C6.51392 22.4014 6.96192 22.2254 7.47392 22.2254C8.24192 22.2254 8.80192 22.5454 9.15392 23.1854L24.5139 53.7134L39.5859 23.1854C39.9699 22.5454 40.5299 22.2254 41.2659 22.2254C41.7779 22.2254 42.2099 22.4014 42.5619 22.7534C42.9139 23.1054 43.0899 23.5534 43.0899 24.0974V57.8414C43.0899 58.3534 42.9139 58.8014 42.5619 59.1854C42.2099 59.5374 41.7779 59.7134 41.2659 59.7134C40.7219 59.7134 40.2579 59.5374 39.8739 59.1854C39.5219 58.8014 39.3459 58.3534 39.3459 57.8414V30.6734L26.0019 57.9374C25.6499 58.5454 25.1059 58.8494 24.3699 58.8494C23.5699 58.8494 22.9939 58.4654 22.6419 57.6974L9.34592 31.1054V57.8414C9.34592 58.3534 9.15392 58.8014 8.76992 59.1854C8.41792 59.5374 7.98592 59.7134 7.47392 59.7134ZM79.6393 60.1934C76.8553 60.1934 74.2953 59.7134 71.9593 58.7534C69.6233 57.7934 67.5913 56.4494 65.8633 54.7214C64.1673 52.9934 62.8393 50.9614 61.8793 48.6254C60.9513 46.2894 60.4873 43.7294 60.4873 40.9454C60.4873 38.1934 60.9513 35.6494 61.8793 33.3134C62.8393 30.9774 64.1673 28.9454 65.8633 27.2174C67.5913 25.4894 69.6233 24.1454 71.9593 23.1854C74.2953 22.2254 76.8553 21.7454 79.6393 21.7454C82.3913 21.7454 84.9353 22.2254 87.2713 23.1854C89.6073 24.1454 91.6393 25.4894 93.3673 27.2174C95.0953 28.9454 96.4233 30.9774 97.3513 33.3134C98.3113 35.6494 98.7913 38.1934 98.7913 40.9454C98.7913 43.7294 98.3113 46.2894 97.3513 48.6254C96.4233 50.9614 95.0953 52.9934 93.3673 54.7214C91.6393 56.4494 89.6073 57.7934 87.2713 58.7534C84.9353 59.7134 82.3913 60.1934 79.6393 60.1934ZM79.6393 56.6414C81.8473 56.6414 83.8953 56.2574 85.7833 55.4894C87.6713 54.6894 89.3033 53.5854 90.6793 52.1774C92.0873 50.7374 93.1753 49.0734 93.9433 47.1854C94.7113 45.2654 95.0953 43.1854 95.0953 40.9454C95.0953 38.7374 94.7113 36.6894 93.9433 34.8014C93.1753 32.8814 92.0873 31.2174 90.6793 29.8094C89.3033 28.3694 87.6713 27.2654 85.7833 26.4974C83.8953 25.6974 81.8473 25.2974 79.6393 25.2974C77.3993 25.2974 75.3353 25.6974 73.4473 26.4974C71.5593 27.2654 69.9113 28.3694 68.5033 29.8094C67.1273 31.2174 66.0553 32.8814 65.2873 34.8014C64.5193 36.6894 64.1353 38.7374 64.1353 40.9454C64.1353 43.1854 64.5193 45.2654 65.2873 47.1854C66.0553 49.0734 67.1273 50.7374 68.5033 52.1774C69.9113 53.5854 71.5593 54.6894 73.4473 55.4894C75.3353 56.2574 77.3993 56.6414 79.6393 56.6414ZM117.986 59.7134C117.442 59.7134 116.994 59.5374 116.642 59.1854C116.29 58.8334 116.114 58.3854 116.114 57.8414V24.0974C116.114 23.5534 116.29 23.1054 116.642 22.7534C116.994 22.4014 117.442 22.2254 117.986 22.2254C118.562 22.2254 119.042 22.4494 119.426 22.8974L142.37 53.0414V24.0974C142.37 23.5534 142.546 23.1054 142.898 22.7534C143.25 22.4014 143.698 22.2254 144.242 22.2254C144.754 22.2254 145.186 22.4014 145.538 22.7534C145.922 23.1054 146.114 23.5534 146.114 24.0974V57.8414C146.114 58.3854 145.922 58.8334 145.538 59.1854C145.186 59.5374 144.754 59.7134 144.242 59.7134C143.634 59.7134 143.17 59.5054 142.85 59.0894L119.858 28.9454V57.8414C119.858 58.3854 119.666 58.8334 119.282 59.1854C118.93 59.5374 118.498 59.7134 117.986 59.7134Z" fill="#333333"/>
<path d="M246.349 40.5049C246.349 61.3471 229.453 78.243 208.611 78.243C187.769 78.243 170.873 61.3471 170.873 40.5049C170.873 19.6626 187.769 2.76668 208.611 2.76668C229.453 2.76668 246.349 19.6626 246.349 40.5049Z" stroke="#14AFAF" stroke-width="5"/>
<path d="M271.197 59.7134C270.685 59.7134 270.237 59.5374 269.853 59.1854C269.501 58.8014 269.325 58.3534 269.325 57.8414V24.0974C269.325 23.5534 269.501 23.1054 269.853 22.7534C270.237 22.4014 270.685 22.2254 271.197 22.2254C271.965 22.2254 272.525 22.5454 272.877 23.1854L288.237 53.7134L303.309 23.1854C303.693 22.5454 304.253 22.2254 304.989 22.2254C305.501 22.2254 305.933 22.4014 306.285 22.7534C306.637 23.1054 306.813 23.5534 306.813 24.0974V57.8414C306.813 58.3534 306.637 58.8014 306.285 59.1854C305.933 59.5374 305.501 59.7134 304.989 59.7134C304.445 59.7134 303.981 59.5374 303.597 59.1854C303.245 58.8014 303.069 58.3534 303.069 57.8414V30.6734L289.725 57.9374C289.373 58.5454 288.829 58.8494 288.093 58.8494C287.293 58.8494 286.717 58.4654 286.365 57.6974L273.069 31.1054V57.8414C273.069 58.3534 272.877 58.8014 272.493 59.1854C272.141 59.5374 271.709 59.7134 271.197 59.7134ZM327.906 59.7134C327.362 59.7134 326.914 59.5374 326.562 59.1854C326.21 58.8334 326.034 58.3854 326.034 57.8414V24.0974C326.034 23.5534 326.21 23.1054 326.562 22.7534C326.914 22.4014 327.362 22.2254 327.906 22.2254H350.418C350.93 22.2254 351.362 22.4014 351.714 22.7534C352.098 23.0734 352.29 23.5054 352.29 24.0494C352.29 24.5294 352.098 24.9454 351.714 25.2974C351.362 25.6494 350.93 25.8254 350.418 25.8254H329.778V39.0734H344.802C345.346 39.0734 345.794 39.2494 346.146 39.6014C346.498 39.9534 346.674 40.3854 346.674 40.8974C346.674 41.4094 346.498 41.8414 346.146 42.1934C345.794 42.5454 345.346 42.7214 344.802 42.7214H329.778V56.1134H350.418C350.93 56.1134 351.362 56.2894 351.714 56.6414C352.098 56.9934 352.29 57.4094 352.29 57.8894C352.29 58.4334 352.098 58.8814 351.714 59.2334C351.362 59.5534 350.93 59.7134 350.418 59.7134H327.906ZM370.741 59.7134C370.197 59.7134 369.749 59.5374 369.397 59.1854C369.045 58.8334 368.869 58.3854 368.869 57.8414V24.0974C368.869 23.5534 369.045 23.1054 369.397 22.7534C369.749 22.4014 370.197 22.2254 370.741 22.2254H379.717C382.053 22.2254 384.133 22.7214 385.957 23.7134C387.781 24.6734 389.205 26.0334 390.229 27.7934C391.285 29.5214 391.813 31.5214 391.813 33.7934C391.813 36.2894 391.141 38.4654 389.797 40.3214C388.453 42.1454 386.661 43.4414 384.421 44.2094L392.293 56.8334C392.773 57.6014 392.853 58.2734 392.533 58.8494C392.245 59.4254 391.669 59.7134 390.805 59.7134C390.389 59.7134 390.053 59.6334 389.797 59.4734C389.573 59.3134 389.365 59.0734 389.173 58.7534L380.533 44.9774C380.277 45.0094 380.005 45.0254 379.717 45.0254H372.613V57.8414C372.613 58.3854 372.437 58.8334 372.085 59.1854C371.733 59.5374 371.285 59.7134 370.741 59.7134ZM372.613 41.4254H379.717C381.349 41.4254 382.789 41.1054 384.037 40.4654C385.317 39.7934 386.325 38.8814 387.061 37.7294C387.797 36.5774 388.165 35.2654 388.165 33.7934C388.165 32.2254 387.797 30.8494 387.061 29.6654C386.325 28.4494 385.317 27.5054 384.037 26.8334C382.789 26.1614 381.349 25.8254 379.717 25.8254H372.613V41.4254Z" fill="#333333"/>
</svg>
